<?xml version="1.0" encoding="utf-8"?>
<!-- Generator: Adobe Illustrator 27.5.0, SVG Export Plug-In . SVG Version: 6.00 Build 0)  -->
<svg version="1.1" xmlns="http://www.w3.org/2000/svg" xmlns:xlink="http://www.w3.org/1999/xlink" x="0px" y="0px"
	 viewBox="0 0 500 500" style="enable-background:new 0 0 500 500;" xml:space="preserve">
<g id="BACKGROUND">
	<g>
		<linearGradient id="SVGID_1_" gradientUnits="userSpaceOnUse" x1="250" y1="500" x2="250" y2="-9.094947e-13">
			<stop  offset="0" style="stop-color:#00335E;stop-opacity:0.8"/>
			<stop  offset="1" style="stop-color:#00335E"/>
		</linearGradient>
		<rect style="fill:url(#SVGID_1_);" width="500" height="500"/>
		<g>
			<defs>
				<rect id="SVGID_00000130644802516311694630000005143892224838878632_" width="500" height="500"/>
			</defs>
			<clipPath id="SVGID_00000051371303762903565900000002264922369754120099_">
				<use xlink:href="#SVGID_00000130644802516311694630000005143892224838878632_"  style="overflow:visible;"/>
			</clipPath>
			<g style="opacity:0.1;clip-path:url(#SVGID_00000051371303762903565900000002264922369754120099_);">
				<g>
					<g>
						<g>
							<g>
								<rect x="24.5" y="-29.736" style="fill:#FCD7FF;" width="1" height="559.473"/>
							</g>
							<g>
								<rect x="54.5" y="-29.736" style="fill:#FCD7FF;" width="1" height="559.473"/>
							</g>
							<g>
								<rect x="84.5" y="-29.736" style="fill:#FCD7FF;" width="1" height="559.473"/>
							</g>
							<g>
								<rect x="114.5" y="-29.736" style="fill:#FCD7FF;" width="1" height="559.473"/>
							</g>
						</g>
						<g>
							<g>
								<rect x="144.5" y="-29.736" style="fill:#FCD7FF;" width="1" height="559.473"/>
							</g>
							<g>
								<rect x="174.5" y="-29.736" style="fill:#FCD7FF;" width="1" height="559.473"/>
							</g>
							<g>
								<rect x="204.5" y="-29.736" style="fill:#FCD7FF;" width="1" height="559.473"/>
							</g>
							<g>
								<rect x="234.5" y="-29.736" style="fill:#FCD7FF;" width="1" height="559.473"/>
							</g>
						</g>
					</g>
					<g>
						<g>
							<g>
								<rect x="264.5" y="-29.736" style="fill:#FCD7FF;" width="1" height="559.473"/>
							</g>
							<g>
								<rect x="294.5" y="-29.736" style="fill:#FCD7FF;" width="1" height="559.473"/>
							</g>
							<g>
								<rect x="324.5" y="-29.736" style="fill:#FCD7FF;" width="1" height="559.473"/>
							</g>
							<g>
								<rect x="354.5" y="-29.736" style="fill:#FCD7FF;" width="1" height="559.473"/>
							</g>
						</g>
						<g>
							<g>
								<rect x="384.5" y="-29.736" style="fill:#FCD7FF;" width="1" height="559.473"/>
							</g>
							<g>
								<rect x="414.5" y="-29.736" style="fill:#FCD7FF;" width="1" height="559.473"/>
							</g>
							<g>
								<rect x="444.5" y="-29.736" style="fill:#FCD7FF;" width="1" height="559.473"/>
							</g>
							<g>
								<rect x="474.5" y="-29.736" style="fill:#FCD7FF;" width="1" height="559.473"/>
							</g>
						</g>
					</g>
				</g>
				<g>
					<g>
						<g>
							<g>
								<rect x="-29.736" y="24.5" style="fill:#FCD7FF;" width="559.473" height="1"/>
							</g>
							<g>
								<rect x="-29.736" y="54.5" style="fill:#FCD7FF;" width="559.473" height="1"/>
							</g>
							<g>
								<rect x="-29.736" y="84.5" style="fill:#FCD7FF;" width="559.473" height="1"/>
							</g>
							<g>
								<rect x="-29.736" y="114.5" style="fill:#FCD7FF;" width="559.473" height="1"/>
							</g>
						</g>
						<g>
							<g>
								<rect x="-29.736" y="144.5" style="fill:#FCD7FF;" width="559.473" height="1"/>
							</g>
							<g>
								<rect x="-29.736" y="174.5" style="fill:#FCD7FF;" width="559.473" height="1"/>
							</g>
							<g>
								<rect x="-29.736" y="204.5" style="fill:#FCD7FF;" width="559.473" height="1"/>
							</g>
							<g>
								<rect x="-29.736" y="234.5" style="fill:#FCD7FF;" width="559.473" height="1"/>
							</g>
						</g>
					</g>
					<g>
						<g>
							<g>
								<rect x="-29.736" y="264.5" style="fill:#FCD7FF;" width="559.473" height="1"/>
							</g>
							<g>
								<rect x="-29.736" y="294.5" style="fill:#FCD7FF;" width="559.473" height="1"/>
							</g>
							<g>
								<rect x="-29.736" y="324.5" style="fill:#FCD7FF;" width="559.473" height="1"/>
							</g>
							<g>
								<rect x="-29.736" y="354.5" style="fill:#FCD7FF;" width="559.473" height="1"/>
							</g>
						</g>
						<g>
							<g>
								<rect x="-29.736" y="384.5" style="fill:#FCD7FF;" width="559.473" height="1"/>
							</g>
							<g>
								<rect x="-29.736" y="414.5" style="fill:#FCD7FF;" width="559.473" height="1"/>
							</g>
							<g>
								<rect x="-29.736" y="444.5" style="fill:#FCD7FF;" width="559.473" height="1"/>
							</g>
							<g>
								<rect x="-29.736" y="474.5" style="fill:#FCD7FF;" width="559.473" height="1"/>
							</g>
						</g>
					</g>
				</g>
			</g>
		</g>
	</g>
</g>
<g id="DESIGNED_BY_FREEPIK">
	<g>
		<g id="XMLID_1_">
			<g id="XMLID_20_">
				<path id="XMLID_28_" style="fill:#F9FBFC;" d="M260.103,470.15c-0.432,0.443-0.803,0.932-1.107,1.453l-0.465-0.241
					c-0.068-0.297-0.35-0.502-0.66-0.466c-0.33,0.039-0.566,0.339-0.529,0.67c0.039,0.331,0.34,0.567,0.67,0.528
					c0.066-0.007,0.127-0.025,0.184-0.052l0.451,0.234c-0.25,0.554-0.432,1.139-0.539,1.743l0.748,0.132
					c0.229-1.306,0.85-2.507,1.791-3.473L260.103,470.15z"/>
				<path id="XMLID_27_" style="fill:#F9FBFC;" d="M265.592,467.849c-0.172,0-0.342,0.006-0.51,0.017l-0.074-0.626
					c0.188-0.149,0.297-0.389,0.266-0.645c-0.045-0.393-0.402-0.674-0.795-0.628c-0.393,0.046-0.674,0.402-0.627,0.796
					c0.029,0.254,0.189,0.461,0.404,0.564l0.072,0.624c-0.713,0.116-1.402,0.332-2.059,0.646l0.326,0.685
					c0.936-0.447,1.941-0.674,2.996-0.674c0.496,0,0.992,0.053,1.475,0.158l0.16-0.741
					C266.691,467.907,266.143,467.849,265.592,467.849z"/>
				<path id="XMLID_26_" style="fill:#F9FBFC;" d="M272.193,470.396c0.332-0.04,0.566-0.341,0.525-0.672
					c-0.039-0.331-0.34-0.566-0.672-0.525c-0.309,0.038-0.535,0.304-0.529,0.608l-0.416,0.363c-0.418-0.43-0.891-0.813-1.408-1.14
					l-0.404,0.642c1.135,0.715,2.021,1.727,2.564,2.925l0.69-0.313c-0.25-0.554-0.566-1.071-0.941-1.545l0.402-0.351
					C272.064,470.4,272.129,470.404,272.193,470.396z"/>
				<path id="XMLID_25_" style="fill:#F9FBFC;" d="M265.045,478.057c-0.387,0.023-0.775,0.035-1.158,0.035
					c-0.879,0-1.732-0.06-2.478-0.18c-0.391-0.062-0.846-0.154-1.27-0.292c1.047,1.861,3.068,3.125,5.389,3.125
					c2.855,0,5.262-1.916,5.949-4.503c-0.682,0.449-1.506,0.825-2.459,1.122C267.838,477.732,266.463,477.972,265.045,478.057z"/>
				<path id="XMLID_21_" style="fill:#F9FBFC;" d="M265.592,469.365c-3.352,0-6.08,2.666-6.08,5.943
					c0,0.425,0.047,0.849,0.137,1.261c0.674,0.483,2.707,0.891,5.348,0.732c2.881-0.174,5.297-0.958,6.672-2.159
					c-0.004-0.194-0.02-0.39-0.045-0.581C271.244,471.599,268.65,469.365,265.592,469.365z M263.432,475.88
					c-1.02,0-1.85-0.83-1.85-1.85c0-1.021,0.83-1.851,1.85-1.851c1.02,0,1.85,0.83,1.85,1.851
					C265.281,475.05,264.451,475.88,263.432,475.88z M268.17,474.972c-0.75,0-1.361-0.61-1.361-1.36s0.611-1.36,1.361-1.36
					s1.359,0.61,1.359,1.36S268.92,474.972,268.17,474.972z"/>
			</g>
			<path id="XMLID_18_" style="fill:#F9FBFC;" d="M281.596,471.232c-0.295-0.116-0.807-0.309-1.383-0.238
				c-0.551,0.069-0.844,0.341-0.844,1.007v0.866h2.229v1.717h-2.229v5.455h-1.932v-5.455h-1.34v-1.717h1.34v-0.889
				c0-1.68,0.895-2.782,2.568-2.782c0.643,0,1.156,0.121,1.59,0.308V471.232z"/>
			<path id="XMLID_16_" style="fill:#F9FBFC;" d="M286.297,474.564c-0.176-0.029-0.357-0.046-0.525-0.046
				c-0.894,0-1.51,0.548-1.51,1.613v3.908h-1.932v-7.172h1.873v0.784c0.451-0.673,1.139-0.977,2.02-0.977
				c0.414,0,0.848,0.128,1.096,0.337L286.297,474.564z"/>
			<path id="XMLID_13_" style="fill:#F9FBFC;" d="M293.965,476.442c0,0.222-0.016,0.488-0.037,0.651h-5.084
				c0.207,1.036,0.932,1.487,1.842,1.487c0.623,0,1.295-0.252,1.815-0.688l1.133,1.243c-0.814,0.748-1.852,1.089-3.057,1.089
				c-2.199,0-3.725-1.496-3.725-3.753c0-2.258,1.48-3.797,3.627-3.797C292.543,472.675,293.957,474.207,293.965,476.442z
				 M288.852,475.776h3.174c-0.178-0.918-0.732-1.437-1.561-1.437C289.555,474.34,289.021,474.888,288.852,475.776z"/>
			<path id="XMLID_10_" style="fill:#F9FBFC;" d="M301.619,476.442c0,0.222-0.016,0.488-0.037,0.651h-5.086
				c0.207,1.036,0.934,1.487,1.844,1.487c0.621,0,1.295-0.252,1.813-0.688l1.133,1.243c-0.814,0.748-1.85,1.089-3.057,1.089
				c-2.199,0-3.723-1.496-3.723-3.753c0-2.258,1.48-3.797,3.627-3.797C300.197,472.675,301.611,474.207,301.619,476.442z
				 M296.504,475.776h3.176c-0.178-0.918-0.734-1.437-1.563-1.437C297.207,474.34,296.674,474.888,296.504,475.776z"/>
			<path id="XMLID_7_" style="fill:#F9FBFC;" d="M309.965,476.449c0,2.154-1.496,3.775-3.473,3.775
				c-0.961,0-1.643-0.378-2.109-0.933V483h-1.924v-10.133h1.887v0.792c0.467-0.585,1.154-0.984,2.139-0.984
				C308.469,472.675,309.965,474.296,309.965,476.449z M304.287,476.449c0,1.133,0.748,1.977,1.844,1.977
				c1.139,0,1.85-0.881,1.85-1.977c0-1.095-0.711-1.976-1.85-1.976C305.035,474.474,304.287,475.317,304.287,476.449z"/>
			<path id="XMLID_4_" style="fill:#F9FBFC;" d="M313.068,470.521c0,0.696-0.541,1.229-1.236,1.229
				c-0.697,0-1.229-0.533-1.229-1.229c0-0.695,0.531-1.243,1.229-1.243C312.527,469.277,313.068,469.825,313.068,470.521z
				 M312.809,480.039h-1.932v-7.172h1.932V480.039z"/>
			<path id="XMLID_2_" style="fill:#F9FBFC;" d="M316.031,475.421l2.703-2.554h2.367l-3.479,3.375l3.502,3.797h-2.377l-2.717-2.901
				v2.901H314.1v-10.658h1.932V475.421z"/>
		</g>
		<g>
			<path style="fill:#F9FBFC;" d="M184.412,479.975v-1.055c-0.527,0.718-1.391,1.23-2.387,1.23c-1.846,0-3.15-1.406-3.15-3.706
				c0-2.256,1.289-3.721,3.15-3.721c0.951,0,1.816,0.469,2.387,1.245v-3.765h1.1v9.771H184.412z M184.412,478.056v-3.208
				c-0.395-0.615-1.244-1.143-2.123-1.143c-1.422,0-2.271,1.172-2.271,2.739c0,1.567,0.85,2.725,2.271,2.725
				C183.168,479.169,184.018,478.671,184.412,478.056z"/>
			<path style="fill:#F9FBFC;" d="M186.932,476.43c0-2.051,1.465-3.706,3.486-3.706c2.139,0,3.398,1.67,3.398,3.794v0.278h-5.727
				c0.088,1.333,1.025,2.446,2.549,2.446c0.805,0,1.625-0.322,2.182-0.894l0.527,0.718c-0.703,0.703-1.654,1.084-2.813,1.084
				C188.441,480.15,186.932,478.642,186.932,476.43z M190.404,473.632c-1.51,0-2.256,1.275-2.314,2.358h4.643
				C192.719,474.935,192.016,473.632,190.404,473.632z"/>
			<path style="fill:#F9FBFC;" d="M194.607,479.037l0.57-0.791c0.469,0.542,1.363,1.011,2.33,1.011c1.084,0,1.67-0.513,1.67-1.216
				c0-1.714-4.381-0.659-4.381-3.281c0-1.099,0.953-2.036,2.637-2.036c1.201,0,2.051,0.454,2.623,1.025l-0.514,0.762
				c-0.424-0.513-1.201-0.894-2.109-0.894c-0.967,0-1.566,0.483-1.566,1.113c0,1.553,4.379,0.527,4.379,3.281
				c0,1.187-0.951,2.139-2.783,2.139C196.307,480.15,195.324,479.799,194.607,479.037z"/>
			<path style="fill:#F9FBFC;" d="M201.477,471.156c0-0.41,0.338-0.747,0.732-0.747c0.41,0,0.748,0.337,0.748,0.747
				c0,0.41-0.338,0.732-0.748,0.732C201.814,471.889,201.477,471.566,201.477,471.156z M201.668,479.975v-7.075h1.098v7.075H201.668
				z"/>
			<path style="fill:#F9FBFC;" d="M204.582,481.791l0.557-0.82c0.586,0.703,1.289,0.967,2.299,0.967
				c1.172,0,2.271-0.571,2.271-2.124v-1.011c-0.514,0.718-1.377,1.26-2.373,1.26c-1.846,0-3.15-1.377-3.15-3.662
				c0-2.27,1.289-3.677,3.15-3.677c0.951,0,1.801,0.469,2.373,1.245v-1.069h1.098v6.87c0,2.344-1.641,3.076-3.369,3.076
				C206.236,482.846,205.416,482.61,204.582,481.791z M209.709,477.939v-3.091c-0.381-0.615-1.23-1.143-2.109-1.143
				c-1.422,0-2.27,1.128-2.27,2.695c0,1.553,0.848,2.695,2.27,2.695C208.479,479.096,209.328,478.554,209.709,477.939z"/>
			<path style="fill:#F9FBFC;" d="M217.414,479.975v-4.629c0-1.245-0.631-1.641-1.582-1.641c-0.865,0-1.686,0.527-2.096,1.099v5.171
				h-1.098v-7.075h1.098v1.025c0.498-0.586,1.465-1.201,2.52-1.201c1.48,0,2.256,0.747,2.256,2.285v4.966H217.414z"/>
			<path style="fill:#F9FBFC;" d="M219.932,476.43c0-2.051,1.465-3.706,3.486-3.706c2.139,0,3.398,1.67,3.398,3.794v0.278h-5.727
				c0.088,1.333,1.025,2.446,2.549,2.446c0.805,0,1.625-0.322,2.182-0.894l0.527,0.718c-0.703,0.703-1.654,1.084-2.813,1.084
				C221.441,480.15,219.932,478.642,219.932,476.43z M223.404,473.632c-1.51,0-2.256,1.275-2.314,2.358h4.643
				C225.719,474.935,225.016,473.632,223.404,473.632z"/>
			<path style="fill:#F9FBFC;" d="M233.35,479.975v-1.055c-0.527,0.718-1.391,1.23-2.387,1.23c-1.846,0-3.15-1.406-3.15-3.706
				c0-2.256,1.289-3.721,3.15-3.721c0.951,0,1.816,0.469,2.387,1.245v-3.765h1.1v9.771H233.35z M233.35,478.056v-3.208
				c-0.395-0.615-1.244-1.143-2.123-1.143c-1.422,0-2.271,1.172-2.271,2.739c0,1.567,0.85,2.725,2.271,2.725
				C232.105,479.169,232.955,478.671,233.35,478.056z"/>
			<path style="fill:#F9FBFC;" d="M239.691,479.975v-9.771h1.1v3.765c0.57-0.776,1.42-1.245,2.387-1.245
				c1.846,0,3.15,1.465,3.15,3.721c0,2.3-1.305,3.706-3.15,3.706c-0.996,0-1.859-0.513-2.387-1.23v1.055H239.691z M242.9,479.169
				c1.436,0,2.285-1.157,2.285-2.725c0-1.567-0.85-2.739-2.285-2.739c-0.865,0-1.729,0.527-2.109,1.143v3.208
				C241.172,478.671,242.035,479.169,242.9,479.169z"/>
			<path style="fill:#F9FBFC;" d="M247.529,481.747c0.16,0.073,0.424,0.117,0.6,0.117c0.484,0,0.807-0.161,1.055-0.747l0.469-1.069
				l-2.959-7.148h1.188l2.357,5.801l2.344-5.801h1.201l-3.545,8.511c-0.424,1.024-1.143,1.421-2.08,1.436
				c-0.234,0-0.6-0.044-0.805-0.104L247.529,481.747z"/>
		</g>
	</g>
</g>
<g id="OBJECTS">
	<g>
		<g>
			<g>
				<g>
					<g>
						<path style="fill:none;stroke:#67E2EF;stroke-width:1.5;stroke-miterlimit:10;" d="M251.215,339.353
							c-7.479,0-15.702-1.869-15.702-1.869c-22.804-9.346-45.982-36.637-45.982-36.637c-14.58-19.813-25.421-45.235-25.421-63.179
							c0-17.945-2.243-32.525-2.243-56.077c0-23.552-2.243-41.123,17.197-62.806c19.439-21.683,69.534-24.299,69.534-24.299h3.292"
							/>
						<polygon style="fill:none;stroke:#67E2EF;stroke-width:1.5;stroke-miterlimit:10;" points="187.661,195.424 211.213,186.078 
							237.381,197.294 212.521,203.649 						"/>
						<polyline style="fill:none;stroke:#67E2EF;stroke-width:1.5;stroke-miterlimit:10;" points="249.828,209.616 241.121,222.078 
							237.381,255.612 225.419,262.716 225.419,273.184 250.507,273.184 						"/>
						<polyline style="fill:none;stroke:#67E2EF;stroke-width:1.5;stroke-miterlimit:10;" points="250.507,293.371 243.364,290.38 
							219.438,299.726 234.973,308.324 250.881,308.324 						"/>
						<polyline style="fill:none;stroke:#67E2EF;stroke-width:1.5;stroke-miterlimit:10;" points="242.034,222.393 237.381,197.294 
							249.272,157.663 216.516,99.618 196.348,157.426 						"/>
						<polyline style="fill:none;stroke:#67E2EF;stroke-width:1.5;stroke-miterlimit:10;" points="162.016,192.117 177.331,120.774 
							211.213,186.078 235.16,132.655 						"/>
						<polyline style="fill:none;stroke:#67E2EF;stroke-width:1.5;stroke-miterlimit:10;" points="250.243,94.601 235.16,132.655 
							196.348,157.426 161.787,193.181 187.661,195.424 						"/>
						<polygon style="fill:none;stroke:#67E2EF;stroke-width:1.5;stroke-miterlimit:10;" points="225.419,262.716 212.521,203.649 
							166.406,253.823 						"/>
						<polyline style="fill:none;stroke:#67E2EF;stroke-width:1.5;stroke-miterlimit:10;" points="219.438,299.726 190.778,302.272 
							225.419,273.184 219.99,299.726 						"/>
						<polyline style="fill:none;stroke:#67E2EF;stroke-width:1.5;stroke-miterlimit:10;" points="234.973,308.324 235.513,337.484 
							219.99,299.726 250.881,299.726 						"/>
					</g>
					<g>
						<path style="fill:none;stroke:#67E2EF;stroke-width:1.5;stroke-miterlimit:10;" d="M251.89,94.487
							c0,0,50.094,2.617,69.534,24.299c19.439,21.683,17.196,39.253,17.196,62.806c0,23.552-2.243,38.131-2.243,56.077
							c0,17.943-10.84,43.365-25.422,63.179c0,0-23.178,27.291-45.981,36.637c0,0-8.224,1.869-15.702,1.869"/>
						<polygon style="fill:none;stroke:#67E2EF;stroke-width:1.5;stroke-miterlimit:10;" points="312.824,195.424 289.273,186.078 
							263.104,197.294 287.964,203.649 						"/>
						<polyline style="fill:none;stroke:#67E2EF;stroke-width:1.5;stroke-miterlimit:10;" points="250.658,209.616 259.365,222.078 
							263.104,255.612 275.066,262.716 275.066,273.184 249.979,273.184 						"/>
						<polyline style="fill:none;stroke:#67E2EF;stroke-width:1.5;stroke-miterlimit:10;" points="249.979,293.371 257.122,290.38 
							281.049,299.726 265.514,308.324 249.603,308.324 						"/>
						<polyline style="fill:none;stroke:#67E2EF;stroke-width:1.5;stroke-miterlimit:10;" points="259.365,222.078 263.104,197.294 
							251.215,157.663 283.97,99.618 300.663,157.428 						"/>
						<polyline style="fill:none;stroke:#67E2EF;stroke-width:1.5;stroke-miterlimit:10;" points="289.273,186.078 323.153,120.774 
							336.901,193.735 						"/>
						<polyline style="fill:none;stroke:#67E2EF;stroke-width:1.5;stroke-miterlimit:10;" points="312.824,195.424 338.699,193.181 
							304.137,157.426 265.327,132.655 250.243,94.601 						"/>
						<polygon style="fill:none;stroke:#67E2EF;stroke-width:1.5;stroke-miterlimit:10;" points="275.066,262.716 287.964,203.649 
							334.079,253.823 						"/>
						<polyline style="fill:none;stroke:#67E2EF;stroke-width:1.5;stroke-miterlimit:10;" points="281.049,299.726 309.707,302.272 
							275.066,273.184 280.495,299.726 249.603,299.726 						"/>
						<polyline style="fill:none;stroke:#67E2EF;stroke-width:1.5;stroke-miterlimit:10;" points="265.514,308.324 264.974,337.484 
							280.495,299.726 						"/>
					</g>
				</g>
				<g>
					<path style="fill:#67E2EF;" d="M219.823,99.618c0-1.826-1.481-3.306-3.309-3.306c-1.825,0-3.305,1.48-3.305,3.306
						c0,1.826,1.48,3.308,3.305,3.308C218.342,102.925,219.823,101.444,219.823,99.618z"/>
					<path style="fill:#67E2EF;" d="M177.33,117.467c-1.825,0-3.306,1.481-3.306,3.307c0,1.826,1.481,3.307,3.306,3.307
						c1.828,0,3.308-1.481,3.308-3.307C180.638,118.948,179.158,117.467,177.33,117.467z"/>
					<path style="fill:#67E2EF;" d="M235.159,135.962c1.827,0,3.308-1.48,3.308-3.308c0-1.825-1.481-3.306-3.308-3.306
						c-1.825,0-3.306,1.48-3.306,3.306C231.853,134.482,233.334,135.962,235.159,135.962z"/>
					<path style="fill:#67E2EF;" d="M196.028,154.122c-1.825,0-3.305,1.48-3.305,3.307c0,1.826,1.48,3.307,3.305,3.307
						c1.828,0,3.308-1.48,3.308-3.307C199.336,155.602,197.856,154.122,196.028,154.122z"/>
					<path style="fill:#67E2EF;" d="M165.094,192.938c0-1.826-1.48-3.306-3.308-3.306c-1.825,0-3.306,1.48-3.306,3.306
						s1.481,3.307,3.306,3.307C163.613,196.244,165.094,194.763,165.094,192.938z"/>
					<path style="fill:#67E2EF;" d="M214.52,185.393c0-1.826-1.48-3.307-3.308-3.307c-1.825,0-3.306,1.48-3.306,3.307
						c0,1.825,1.48,3.306,3.306,3.306C213.04,188.699,214.52,187.218,214.52,185.393z"/>
					<path style="fill:#67E2EF;" d="M191.983,195.424c0-1.826-1.48-3.307-3.309-3.307c-1.825,0-3.305,1.48-3.305,3.307
						c0,1.826,1.48,3.307,3.305,3.307C190.502,198.73,191.983,197.25,191.983,195.424z"/>
					<path style="fill:#67E2EF;" d="M212.52,200.342c-1.825,0-3.305,1.48-3.305,3.307c0,1.826,1.48,3.306,3.305,3.306
						c1.828,0,3.308-1.48,3.308-3.306C215.829,201.823,214.348,200.342,212.52,200.342z"/>
					<path style="fill:#67E2EF;" d="M233.768,197.042c0,1.826,1.481,3.307,3.306,3.307c1.828,0,3.308-1.481,3.308-3.307
						c0-1.826-1.48-3.307-3.308-3.307C235.248,193.735,233.768,195.216,233.768,197.042z"/>
					<path style="fill:#67E2EF;" d="M237.963,222.078c0,1.827,1.48,3.308,3.305,3.308c1.828,0,3.308-1.48,3.308-3.308
						c0-1.825-1.48-3.307-3.308-3.307C239.444,218.771,237.963,220.253,237.963,222.078z"/>
					<path style="fill:#67E2EF;" d="M225.417,259.41c-1.825,0-3.305,1.48-3.305,3.306c0,1.827,1.48,3.307,3.305,3.307
						c1.828,0,3.309-1.479,3.309-3.307C228.726,260.891,227.246,259.41,225.417,259.41z"/>
					<path style="fill:#67E2EF;" d="M237.463,251.566c-1.825,0-3.306,1.48-3.306,3.306c0,1.827,1.481,3.307,3.306,3.307
						c1.828,0,3.309-1.48,3.309-3.307C240.772,253.047,239.291,251.566,237.463,251.566z"/>
					<path style="fill:#67E2EF;" d="M166.405,250.518c-1.825,0-3.306,1.48-3.306,3.306c0,1.827,1.481,3.307,3.306,3.307
						c1.827,0,3.307-1.48,3.307-3.307C169.712,251.998,168.232,250.518,166.405,250.518z"/>
					<path style="fill:#67E2EF;" d="M190.017,298.965c-1.825,0-3.306,1.48-3.306,3.307c0,1.826,1.481,3.307,3.306,3.307
						c1.827,0,3.308-1.48,3.308-3.307C193.325,300.445,191.844,298.965,190.017,298.965z"/>
					<path style="fill:#67E2EF;" d="M220.788,296.42c-1.825,0-3.305,1.48-3.305,3.306c0,1.828,1.48,3.308,3.305,3.308
						c1.828,0,3.308-1.479,3.308-3.308C224.096,297.9,222.616,296.42,220.788,296.42z"/>
					<path style="fill:#67E2EF;" d="M243.191,287.073c-1.826,0-3.306,1.481-3.306,3.307c0,1.826,1.48,3.307,3.306,3.307
						c1.828,0,3.309-1.48,3.309-3.307C246.5,288.555,245.019,287.073,243.191,287.073z"/>
					<path style="fill:#67E2EF;" d="M234.157,311.631c1.828,0,3.308-1.479,3.308-3.307c0-1.826-1.48-3.307-3.308-3.307
						c-1.825,0-3.306,1.48-3.306,3.307C230.851,310.151,232.331,311.631,234.157,311.631z"/>
					<path style="fill:#67E2EF;" d="M234.971,334.178c-1.825,0-3.305,1.482-3.305,3.307c0,1.826,1.48,3.308,3.305,3.308
						c1.828,0,3.308-1.482,3.308-3.308C238.279,335.66,236.799,334.178,234.971,334.178z"/>
					<path style="fill:#67E2EF;" d="M249.758,97.908c0.082,0,0.161-0.018,0.242-0.025c0.081,0.007,0.159,0.025,0.242,0.025
						c1.827,0,3.308-1.48,3.308-3.306c0-1.827-1.481-3.308-3.308-3.308c-0.083,0-0.16,0.019-0.242,0.024
						c-0.081-0.005-0.159-0.024-0.242-0.024c-1.827,0-3.308,1.481-3.308,3.308C246.451,96.427,247.931,97.908,249.758,97.908z"/>
					<path style="fill:#67E2EF;" d="M286.791,99.618c0-1.826-1.48-3.306-3.307-3.306c-1.827,0-3.309,1.48-3.309,3.306
						c0,1.826,1.481,3.308,3.309,3.308C285.31,102.925,286.791,101.444,286.791,99.618z"/>
					<path style="fill:#67E2EF;" d="M249.759,160.735c0.083,0,0.16-0.019,0.241-0.025c0.081,0.006,0.159,0.025,0.242,0.025
						c1.827,0,3.308-1.48,3.308-3.307c0-1.826-1.481-3.307-3.308-3.307c-0.083,0-0.16,0.019-0.242,0.024
						c-0.081-0.005-0.159-0.024-0.241-0.024c-1.828,0-3.308,1.48-3.308,3.307C246.451,159.254,247.931,160.735,249.759,160.735z"/>
					<path style="fill:#67E2EF;" d="M322.67,117.467c-1.827,0-3.308,1.481-3.308,3.307c0,1.826,1.48,3.307,3.308,3.307
						c1.825,0,3.306-1.481,3.306-3.307C325.976,118.948,324.495,117.467,322.67,117.467z"/>
					<path style="fill:#67E2EF;" d="M264.841,135.962c1.826,0,3.308-1.48,3.308-3.308c0-1.825-1.481-3.306-3.308-3.306
						s-3.307,1.48-3.307,3.306C261.534,134.482,263.015,135.962,264.841,135.962z"/>
					<path style="fill:#67E2EF;" d="M303.971,154.122c-1.826,0-3.308,1.48-3.308,3.307c0,1.826,1.481,3.307,3.308,3.307
						s3.306-1.48,3.306-3.307C307.276,155.602,305.797,154.122,303.971,154.122z"/>
					<path style="fill:#67E2EF;" d="M338.215,189.631c-1.829,0-3.309,1.48-3.309,3.306s1.48,3.307,3.309,3.307
						c1.823,0,3.305-1.481,3.305-3.307S340.038,189.631,338.215,189.631z"/>
					<path style="fill:#67E2EF;" d="M288.788,182.086c-1.827,0-3.308,1.48-3.308,3.307c0,1.825,1.48,3.306,3.308,3.306
						c1.825,0,3.306-1.481,3.306-3.306C292.094,183.567,290.613,182.086,288.788,182.086z"/>
					<path style="fill:#67E2EF;" d="M311.325,192.117c-1.828,0-3.309,1.48-3.309,3.307c0,1.826,1.48,3.307,3.309,3.307
						c1.825,0,3.307-1.48,3.307-3.307C314.632,193.598,313.15,192.117,311.325,192.117z"/>
					<path style="fill:#67E2EF;" d="M287.48,200.342c-1.828,0-3.309,1.48-3.309,3.307c0,1.826,1.48,3.306,3.309,3.306
						c1.825,0,3.306-1.48,3.306-3.306C290.786,201.823,289.306,200.342,287.48,200.342z"/>
					<path style="fill:#67E2EF;" d="M262.928,200.349c1.824,0,3.305-1.481,3.305-3.307c0-1.826-1.48-3.307-3.305-3.307
						c-1.828,0-3.31,1.481-3.31,3.307C259.618,198.868,261.1,200.349,262.928,200.349z"/>
					<path style="fill:#67E2EF;" d="M250.022,206.311c-0.008,0-0.015,0.003-0.022,0.003c-0.007,0-0.015-0.003-0.023-0.003
						c-1.825,0-3.306,1.48-3.306,3.307s1.48,3.307,3.306,3.307c0.008,0,0.016-0.003,0.023-0.003c0.008,0,0.015,0.003,0.022,0.003
						c1.826,0,3.307-1.481,3.307-3.307S251.849,206.311,250.022,206.311z"/>
					<path style="fill:#67E2EF;" d="M258.731,225.386c1.825,0,3.306-1.48,3.306-3.308c0-1.825-1.48-3.307-3.306-3.307
						c-1.828,0-3.308,1.481-3.308,3.307C255.423,223.905,256.903,225.386,258.731,225.386z"/>
					<path style="fill:#67E2EF;" d="M277.889,262.716c0-1.825-1.48-3.306-3.307-3.306c-1.827,0-3.308,1.48-3.308,3.306
						c0,1.827,1.48,3.307,3.308,3.307C276.408,266.022,277.889,264.543,277.889,262.716z"/>
					<path style="fill:#67E2EF;" d="M265.843,254.872c0-1.825-1.482-3.306-3.306-3.306c-1.828,0-3.309,1.48-3.309,3.306
						c0,1.827,1.481,3.307,3.309,3.307C264.361,258.179,265.843,256.699,265.843,254.872z"/>
					<path style="fill:#67E2EF;" d="M333.595,250.518c-1.827,0-3.308,1.48-3.308,3.306c0,1.827,1.48,3.307,3.308,3.307
						c1.825,0,3.307-1.48,3.307-3.307C336.901,251.998,335.42,250.518,333.595,250.518z"/>
					<path style="fill:#67E2EF;" d="M309.984,298.965c-1.828,0-3.309,1.48-3.309,3.307c0,1.826,1.48,3.307,3.309,3.307
						c1.826,0,3.306-1.48,3.306-3.307C313.29,300.445,311.81,298.965,309.984,298.965z"/>
					<path style="fill:#67E2EF;" d="M279.212,296.42c-1.827,0-3.308,1.48-3.308,3.306c0,1.828,1.48,3.308,3.308,3.308
						c1.826,0,3.306-1.479,3.306-3.308C282.518,297.9,281.038,296.42,279.212,296.42z"/>
					<path style="fill:#67E2EF;" d="M256.809,287.073c-1.827,0-3.307,1.481-3.307,3.307c0,1.826,1.479,3.307,3.307,3.307
						c1.825,0,3.306-1.48,3.306-3.307C260.114,288.555,258.634,287.073,256.809,287.073z"/>
					<path style="fill:#67E2EF;" d="M265.844,305.018c-1.827,0-3.308,1.48-3.308,3.307c0,1.827,1.48,3.307,3.308,3.307
						c1.824,0,3.305-1.479,3.305-3.307C269.148,306.498,267.668,305.018,265.844,305.018z"/>
					<path style="fill:#67E2EF;" d="M265.029,334.178c-1.828,0-3.308,1.482-3.308,3.307c0,1.826,1.48,3.308,3.308,3.308
						c1.825,0,3.306-1.482,3.306-3.308C268.335,335.66,266.854,334.178,265.029,334.178z"/>
				</g>
			</g>
			<g>
				
					<linearGradient id="SVGID_00000154413046580791840360000000394978191370098360_" gradientUnits="userSpaceOnUse" x1="39.2607" y1="250.0002" x2="392.8237" y2="250.0002" gradientTransform="matrix(0 1 -1 0 500 5.000000e-04)">
					<stop  offset="0" style="stop-color:#67E2EF"/>
					<stop  offset="1" style="stop-color:#A0E7EF;stop-opacity:0.3"/>
				</linearGradient>
				<path style="fill:url(#SVGID_00000154413046580791840360000000394978191370098360_);" d="M73.218,216.043h5.412
					c0,94.494,76.875,171.37,171.37,171.37c94.493,0,171.37-76.876,171.37-171.37c0-94.494-76.877-171.37-171.37-171.37v-5.412
					c97.477,0,176.781,79.304,176.781,176.782S347.477,392.824,250,392.824C152.522,392.824,73.218,313.521,73.218,216.043z"/>
			</g>
			
				<ellipse transform="matrix(0.7071 -0.7071 0.7071 0.7071 -79.5422 240.0542)" style="fill:none;stroke:#67E2EF;stroke-miterlimit:10;stroke-dasharray:12.0888,12.0888;" cx="250" cy="216.043" rx="159.645" ry="159.645"/>
			
				<line style="fill:none;stroke:#67E2EF;stroke-width:1.5;stroke-miterlimit:10;" x1="225.419" y1="264.5" x2="161.787" y2="193.181"/>
			
				<line style="fill:none;stroke:#67E2EF;stroke-width:1.5;stroke-miterlimit:10;" x1="188.676" y1="303.033" x2="211.5" y2="204.5"/>
			
				<line style="fill:none;stroke:#67E2EF;stroke-width:1.5;stroke-miterlimit:10;" x1="265.327" y1="132.655" x2="289.273" y2="186.078"/>
			
				<line style="fill:none;stroke:#67E2EF;stroke-width:1.5;stroke-miterlimit:10;" x1="287.964" y1="203.649" x2="309.707" y2="302.272"/>
			
				<line style="fill:none;stroke:#67E2EF;stroke-width:1.5;stroke-miterlimit:10;" x1="338.699" y1="193.181" x2="275.066" y2="262.716"/>
			
				<line style="fill:none;stroke:#67E2EF;stroke-width:1.5;stroke-miterlimit:10;" x1="225.419" y1="273.184" x2="243.364" y2="290.38"/>
			
				<line style="fill:none;stroke:#67E2EF;stroke-width:1.5;stroke-miterlimit:10;" x1="275.066" y1="273.184" x2="257.122" y2="290.38"/>
		</g>
		<g>
			<g>
				<polygon style="fill:#67E2EF;" points="96.485,27.812 63.632,27.812 56.248,27.812 56.248,35.196 56.248,68.049 63.632,68.049 
					63.632,35.196 96.485,35.196 				"/>
				<polygon style="fill:#67E2EF;" points="403.514,27.812 436.367,27.812 443.753,27.812 443.753,35.196 443.753,68.049 
					436.367,68.049 436.367,35.196 403.514,35.196 				"/>
			</g>
			<g>
				<polygon style="fill:#67E2EF;" points="403.515,404.275 436.367,404.275 443.753,404.275 443.753,396.89 443.753,364.036 
					436.367,364.036 436.367,396.89 403.515,396.89 				"/>
				<polygon style="fill:#67E2EF;" points="96.486,404.275 63.632,404.275 56.248,404.275 56.248,396.89 56.248,364.036 
					63.632,364.036 63.632,396.89 96.486,396.89 				"/>
			</g>
		</g>
	</g>
	<g>
		
			<text transform="matrix(1 0 0 1 176.4053 422.2461)" style="fill:#67E2EF; font-family:'Montserrat-ExtraBold'; font-size:12px; letter-spacing:1;">FACE RECOGNITION</text>
		<g>
			<rect x="141.25" y="432.5" style="opacity:0.3;fill:#67E2EF;" width="217.5" height="16.5"/>
			<g>
				<rect x="146.875" y="435.75" style="fill:#67E2EF;" width="6.25" height="10"/>
				<rect x="156.875" y="435.75" style="fill:#67E2EF;" width="6.25" height="10"/>
				<rect x="166.875" y="435.75" style="fill:#67E2EF;" width="6.25" height="10"/>
				<rect x="176.875" y="435.75" style="fill:#67E2EF;" width="6.25" height="10"/>
				<rect x="186.875" y="435.75" style="fill:#67E2EF;" width="6.25" height="10"/>
				<rect x="196.875" y="435.75" style="fill:#67E2EF;" width="6.25" height="10"/>
				<rect x="206.875" y="435.75" style="fill:#67E2EF;" width="6.25" height="10"/>
				<rect x="216.875" y="435.75" style="fill:#67E2EF;" width="6.25" height="10"/>
				<rect x="226.875" y="435.75" style="fill:#67E2EF;" width="6.25" height="10"/>
				<rect x="236.875" y="435.75" style="fill:#67E2EF;" width="6.25" height="10"/>
				<rect x="246.875" y="435.75" style="fill:#67E2EF;" width="6.25" height="10"/>
				<rect x="256.875" y="435.75" style="fill:#67E2EF;" width="6.25" height="10"/>
				<rect x="266.875" y="435.75" style="fill:#67E2EF;" width="6.25" height="10"/>
				<rect x="276.875" y="435.75" style="opacity:0.5;fill:#67E2EF;" width="6.25" height="10"/>
				<rect x="286.875" y="435.75" style="opacity:0.5;fill:#67E2EF;" width="6.25" height="10"/>
				<rect x="296.875" y="435.75" style="opacity:0.5;fill:#67E2EF;" width="6.25" height="10"/>
				<rect x="306.875" y="435.75" style="opacity:0.5;fill:#67E2EF;" width="6.25" height="10"/>
				<rect x="316.875" y="435.75" style="opacity:0.5;fill:#67E2EF;" width="6.25" height="10"/>
				<rect x="326.875" y="435.75" style="opacity:0.5;fill:#67E2EF;" width="6.25" height="10"/>
				<rect x="336.875" y="435.75" style="opacity:0.5;fill:#67E2EF;" width="6.25" height="10"/>
				<rect x="346.875" y="435.75" style="opacity:0.5;fill:#67E2EF;" width="6.25" height="10"/>
			</g>
		</g>
	</g>
	<rect x="56.874" y="29.31" style="opacity:0.2;fill:#67E2EF;" width="386.252" height="206.689"/>
</g>
</svg>
